<mxfile host="app.diagrams.net" modified="2021-06-09T10:46:34.287Z" agent="5.0 (Windows NT 10.0; Win64; x64) AppleWebKit/537.36 (KHTML, like Gecko) Chrome/91.0.4472.77 Safari/537.36" etag="L5tJHTXdtrit2g9a-TGe" version="14.7.6" type="github">
  <diagram id="fFg92c2pQvZDjQnovCKE" name="Page-1">
    <mxGraphModel dx="868" dy="450" grid="1" gridSize="10" guides="1" tooltips="1" connect="1" arrows="1" fold="1" page="1" pageScale="1" pageWidth="850" pageHeight="1100" math="0" shadow="0">
      <root>
        <mxCell id="0" />
        <mxCell id="1" parent="0" />
        <mxCell id="bANdUX00ldxKiqN2QLkD-5" style="edgeStyle=orthogonalEdgeStyle;rounded=0;orthogonalLoop=1;jettySize=auto;html=1;entryX=0;entryY=0;entryDx=0;entryDy=52.5;entryPerimeter=0;" parent="1" source="bANdUX00ldxKiqN2QLkD-2" target="bANdUX00ldxKiqN2QLkD-3" edge="1">
          <mxGeometry relative="1" as="geometry">
            <Array as="points">
              <mxPoint x="170" y="90" />
              <mxPoint x="170" y="123" />
            </Array>
          </mxGeometry>
        </mxCell>
        <mxCell id="SA-iDwVwZmnXe08kRZjd-3" style="edgeStyle=orthogonalEdgeStyle;rounded=0;orthogonalLoop=1;jettySize=auto;html=1;entryX=0;entryY=0.5;entryDx=0;entryDy=0;" edge="1" parent="1" source="bANdUX00ldxKiqN2QLkD-2" target="bANdUX00ldxKiqN2QLkD-4">
          <mxGeometry relative="1" as="geometry">
            <mxPoint x="80" y="260" as="targetPoint" />
            <Array as="points">
              <mxPoint x="80" y="260" />
            </Array>
          </mxGeometry>
        </mxCell>
        <mxCell id="bANdUX00ldxKiqN2QLkD-2" value="PkgNo" style="shape=cube;whiteSpace=wrap;html=1;boundedLbl=1;backgroundOutline=1;darkOpacity=0.05;darkOpacity2=0.1;fillColor=#f8cecc;strokeColor=#b85450;" parent="1" vertex="1">
          <mxGeometry x="30" y="50" width="100" height="60" as="geometry" />
        </mxCell>
        <mxCell id="bANdUX00ldxKiqN2QLkD-3" value="Spanner DB" style="shape=cylinder3;whiteSpace=wrap;html=1;boundedLbl=1;backgroundOutline=1;size=15;" parent="1" vertex="1">
          <mxGeometry x="230" y="70" width="60" height="80" as="geometry" />
        </mxCell>
        <mxCell id="bANdUX00ldxKiqN2QLkD-12" style="edgeStyle=orthogonalEdgeStyle;rounded=0;orthogonalLoop=1;jettySize=auto;html=1;entryX=0;entryY=0.75;entryDx=0;entryDy=0;" parent="1" source="bANdUX00ldxKiqN2QLkD-4" target="bANdUX00ldxKiqN2QLkD-9" edge="1">
          <mxGeometry relative="1" as="geometry" />
        </mxCell>
        <mxCell id="SA-iDwVwZmnXe08kRZjd-1" value="" style="edgeStyle=orthogonalEdgeStyle;rounded=0;orthogonalLoop=1;jettySize=auto;html=1;" edge="1" parent="1" source="bANdUX00ldxKiqN2QLkD-4" target="bANdUX00ldxKiqN2QLkD-28">
          <mxGeometry relative="1" as="geometry" />
        </mxCell>
        <mxCell id="bANdUX00ldxKiqN2QLkD-4" value="PubSub" style="shape=step;perimeter=stepPerimeter;whiteSpace=wrap;html=1;fixedSize=1;fillColor=#d5e8d4;strokeColor=#82b366;" parent="1" vertex="1">
          <mxGeometry x="110" y="240" width="90" height="40" as="geometry" />
        </mxCell>
        <mxCell id="bANdUX00ldxKiqN2QLkD-13" style="edgeStyle=orthogonalEdgeStyle;rounded=0;orthogonalLoop=1;jettySize=auto;html=1;entryX=0.5;entryY=0;entryDx=0;entryDy=0;" parent="1" source="bANdUX00ldxKiqN2QLkD-7" target="bANdUX00ldxKiqN2QLkD-9" edge="1">
          <mxGeometry relative="1" as="geometry" />
        </mxCell>
        <mxCell id="bANdUX00ldxKiqN2QLkD-7" value="Spanner API" style="rounded=1;whiteSpace=wrap;html=1;" parent="1" vertex="1">
          <mxGeometry x="290" y="170" width="90" height="30" as="geometry" />
        </mxCell>
        <mxCell id="bANdUX00ldxKiqN2QLkD-8" value="" style="endArrow=classic;startArrow=classic;html=1;entryX=1;entryY=0.5;entryDx=0;entryDy=0;entryPerimeter=0;exitX=0.5;exitY=0;exitDx=0;exitDy=0;" parent="1" source="bANdUX00ldxKiqN2QLkD-7" target="bANdUX00ldxKiqN2QLkD-3" edge="1">
          <mxGeometry width="50" height="50" relative="1" as="geometry">
            <mxPoint x="400" y="250" as="sourcePoint" />
            <mxPoint x="450" y="200" as="targetPoint" />
            <Array as="points">
              <mxPoint x="335" y="110" />
            </Array>
          </mxGeometry>
        </mxCell>
        <mxCell id="bANdUX00ldxKiqN2QLkD-11" style="edgeStyle=orthogonalEdgeStyle;rounded=0;orthogonalLoop=1;jettySize=auto;html=1;entryX=0;entryY=0;entryDx=0;entryDy=52.5;entryPerimeter=0;" parent="1" source="bANdUX00ldxKiqN2QLkD-9" target="bANdUX00ldxKiqN2QLkD-10" edge="1">
          <mxGeometry relative="1" as="geometry" />
        </mxCell>
        <mxCell id="bANdUX00ldxKiqN2QLkD-9" value="BT ETL" style="rounded=1;whiteSpace=wrap;html=1;" parent="1" vertex="1">
          <mxGeometry x="270" y="240" width="80" height="30" as="geometry" />
        </mxCell>
        <mxCell id="bANdUX00ldxKiqN2QLkD-23" value="" style="edgeStyle=orthogonalEdgeStyle;rounded=0;orthogonalLoop=1;jettySize=auto;html=1;" parent="1" source="bANdUX00ldxKiqN2QLkD-10" target="bANdUX00ldxKiqN2QLkD-21" edge="1">
          <mxGeometry relative="1" as="geometry" />
        </mxCell>
        <mxCell id="bANdUX00ldxKiqN2QLkD-10" value="BT&lt;br&gt;transitDel" style="shape=cylinder3;whiteSpace=wrap;html=1;boundedLbl=1;backgroundOutline=1;size=15;" parent="1" vertex="1">
          <mxGeometry x="425" y="260" width="60" height="80" as="geometry" />
        </mxCell>
        <mxCell id="bANdUX00ldxKiqN2QLkD-15" style="edgeStyle=orthogonalEdgeStyle;rounded=0;orthogonalLoop=1;jettySize=auto;html=1;entryX=0.875;entryY=0;entryDx=0;entryDy=0;entryPerimeter=0;" parent="1" source="bANdUX00ldxKiqN2QLkD-14" target="bANdUX00ldxKiqN2QLkD-9" edge="1">
          <mxGeometry relative="1" as="geometry">
            <Array as="points">
              <mxPoint x="435" y="220" />
              <mxPoint x="340" y="220" />
            </Array>
          </mxGeometry>
        </mxCell>
        <mxCell id="bANdUX00ldxKiqN2QLkD-14" value="Transit Service API" style="rounded=1;whiteSpace=wrap;html=1;" parent="1" vertex="1">
          <mxGeometry x="400" y="150" width="70" height="30" as="geometry" />
        </mxCell>
        <mxCell id="bANdUX00ldxKiqN2QLkD-16" value="API v6/Scanned" style="rounded=1;whiteSpace=wrap;html=1;" parent="1" vertex="1">
          <mxGeometry x="640" y="280" width="120" height="30" as="geometry" />
        </mxCell>
        <mxCell id="bANdUX00ldxKiqN2QLkD-20" style="edgeStyle=orthogonalEdgeStyle;rounded=0;orthogonalLoop=1;jettySize=auto;html=1;entryX=0.25;entryY=1;entryDx=0;entryDy=0;" parent="1" source="bANdUX00ldxKiqN2QLkD-19" target="bANdUX00ldxKiqN2QLkD-16" edge="1">
          <mxGeometry relative="1" as="geometry">
            <mxPoint x="670" y="320" as="targetPoint" />
          </mxGeometry>
        </mxCell>
        <mxCell id="bANdUX00ldxKiqN2QLkD-19" value="Pickup API" style="rounded=1;whiteSpace=wrap;html=1;" parent="1" vertex="1">
          <mxGeometry x="430" y="370" width="90" height="30" as="geometry" />
        </mxCell>
        <mxCell id="bANdUX00ldxKiqN2QLkD-22" value="" style="edgeStyle=orthogonalEdgeStyle;rounded=0;orthogonalLoop=1;jettySize=auto;html=1;" parent="1" source="bANdUX00ldxKiqN2QLkD-21" target="bANdUX00ldxKiqN2QLkD-16" edge="1">
          <mxGeometry relative="1" as="geometry" />
        </mxCell>
        <mxCell id="bANdUX00ldxKiqN2QLkD-21" value="Delivery API&amp;nbsp;" style="rounded=1;whiteSpace=wrap;html=1;" parent="1" vertex="1">
          <mxGeometry x="510" y="280" width="90" height="30" as="geometry" />
        </mxCell>
        <mxCell id="bANdUX00ldxKiqN2QLkD-25" style="edgeStyle=orthogonalEdgeStyle;rounded=0;orthogonalLoop=1;jettySize=auto;html=1;entryX=0.5;entryY=0;entryDx=0;entryDy=0;" parent="1" source="bANdUX00ldxKiqN2QLkD-24" target="bANdUX00ldxKiqN2QLkD-16" edge="1">
          <mxGeometry relative="1" as="geometry" />
        </mxCell>
        <mxCell id="bANdUX00ldxKiqN2QLkD-24" value="ODIN API" style="rounded=1;whiteSpace=wrap;html=1;fillColor=#f8cecc;strokeColor=#b85450;" parent="1" vertex="1">
          <mxGeometry x="580" y="180" width="70" height="40" as="geometry" />
        </mxCell>
        <mxCell id="bANdUX00ldxKiqN2QLkD-32" style="edgeStyle=orthogonalEdgeStyle;rounded=0;orthogonalLoop=1;jettySize=auto;html=1;entryX=0;entryY=0.5;entryDx=0;entryDy=0;" parent="1" source="bANdUX00ldxKiqN2QLkD-26" target="bANdUX00ldxKiqN2QLkD-19" edge="1">
          <mxGeometry relative="1" as="geometry" />
        </mxCell>
        <mxCell id="bANdUX00ldxKiqN2QLkD-26" value="BT OnDemand" style="shape=cylinder3;whiteSpace=wrap;html=1;boundedLbl=1;backgroundOutline=1;size=15;" parent="1" vertex="1">
          <mxGeometry x="290" y="350" width="60" height="80" as="geometry" />
        </mxCell>
        <mxCell id="bANdUX00ldxKiqN2QLkD-33" style="edgeStyle=orthogonalEdgeStyle;rounded=0;orthogonalLoop=1;jettySize=auto;html=1;entryX=0.5;entryY=1;entryDx=0;entryDy=0;" parent="1" source="bANdUX00ldxKiqN2QLkD-27" target="bANdUX00ldxKiqN2QLkD-19" edge="1">
          <mxGeometry relative="1" as="geometry" />
        </mxCell>
        <mxCell id="bANdUX00ldxKiqN2QLkD-27" value="BT TIMMs" style="shape=cylinder3;whiteSpace=wrap;html=1;boundedLbl=1;backgroundOutline=1;size=15;" parent="1" vertex="1">
          <mxGeometry x="290" y="450" width="60" height="80" as="geometry" />
        </mxCell>
        <mxCell id="bANdUX00ldxKiqN2QLkD-30" style="edgeStyle=orthogonalEdgeStyle;rounded=0;orthogonalLoop=1;jettySize=auto;html=1;entryX=0.017;entryY=0.588;entryDx=0;entryDy=0;entryPerimeter=0;" parent="1" source="bANdUX00ldxKiqN2QLkD-28" target="bANdUX00ldxKiqN2QLkD-26" edge="1">
          <mxGeometry relative="1" as="geometry" />
        </mxCell>
        <mxCell id="bANdUX00ldxKiqN2QLkD-28" value="BQ" style="shape=cylinder3;whiteSpace=wrap;html=1;boundedLbl=1;backgroundOutline=1;size=15;fillColor=#f8cecc;strokeColor=#b85450;" parent="1" vertex="1">
          <mxGeometry x="90" y="380" width="50" height="60" as="geometry" />
        </mxCell>
        <mxCell id="bANdUX00ldxKiqN2QLkD-31" style="edgeStyle=orthogonalEdgeStyle;rounded=0;orthogonalLoop=1;jettySize=auto;html=1;entryX=0;entryY=0.5;entryDx=0;entryDy=0;entryPerimeter=0;" parent="1" source="bANdUX00ldxKiqN2QLkD-29" target="bANdUX00ldxKiqN2QLkD-27" edge="1">
          <mxGeometry relative="1" as="geometry" />
        </mxCell>
        <mxCell id="bANdUX00ldxKiqN2QLkD-29" value="BQ" style="shape=cylinder3;whiteSpace=wrap;html=1;boundedLbl=1;backgroundOutline=1;size=15;fillColor=#f8cecc;strokeColor=#b85450;" parent="1" vertex="1">
          <mxGeometry x="88" y="457" width="50" height="60" as="geometry" />
        </mxCell>
      </root>
    </mxGraphModel>
  </diagram>
</mxfile>
